<svg width="12" height="12" viewBox="0 0 12 12" fill="none" xmlns="http://www.w3.org/2000/svg">
<g clip-path="url(#clip0_67_14)">
<path d="M6 8C7.10455 8 8 7.10455 8 6C8 4.89543 7.10455 4 6 4C4.89543 4 4 4.89543 4 6C4 7.10455 4.89543 8 6 8Z" stroke="black" stroke-width="1.5" stroke-linecap="round" stroke-linejoin="round"/>
<path d="M1.5 8V4C1.5 2.61929 2.61929 1.5 4 1.5H8C9.3807 1.5 10.5 2.61929 10.5 4V8C10.5 9.3807 9.3807 10.5 8 10.5H4C2.61929 10.5 1.5 9.3807 1.5 8Z" stroke="black" stroke-width="1.5"/>
<path d="M8.75 3.255L8.755 3.24944" stroke="black" stroke-width="1.5" stroke-linecap="round" stroke-linejoin="round"/>
</g>
<defs>
<clipPath id="clip0_67_14">
<rect width="12" height="12" fill="white"/>
</clipPath>
</defs>
</svg>
